<?xml version="1.0" encoding="UTF-8" standalone="no"?>
<!DOCTYPE svg PUBLIC "-//W3C//DTD SVG 1.1//EN"
 "http://www.w3.org/Graphics/SVG/1.1/DTD/svg11.dtd">
<!-- Generated by graphviz version 2.42.3 (20191010.1750)
 -->
<!-- Title: G0 Pages: 1 -->
<svg width="1892pt" height="1812pt"
 viewBox="0.00 0.00 1892.00 1811.50" xmlns="http://www.w3.org/2000/svg" xmlns:xlink="http://www.w3.org/1999/xlink">
<g id="graph0" class="graph" transform="scale(1 1) rotate(0) translate(4 1807.5)">
<title>G0</title>
<polygon fill="white" stroke="transparent" points="-4,4 -4,-1807.5 1888,-1807.5 1888,4 -4,4"/>
<g id="clust1" class="cluster">
<title>clustersubgraph0</title>
<polygon fill="none" stroke="black" points="8,-227 8,-1680.5 1876,-1680.5 1876,-227 8,-227"/>
<text text-anchor="middle" x="942" y="-1665.3" font-family="Times,serif" font-size="14.00">subgraph_quant_batch_normalization</text>
</g>
<g id="clust2" class="cluster">
<title>clustersubgraph1</title>
<polygon fill="none" stroke="black" points="418,-614 418,-858.5 1131,-858.5 1131,-614 418,-614"/>
<text text-anchor="middle" x="774.5" y="-843.3" font-family="Times,serif" font-size="14.00">subgraph_quant_dense(TransferMatMulToConv2d)</text>
</g>
<g id="clust3" class="cluster">
<title>clustersubgraph2</title>
<polygon fill="none" stroke="black" points="1139,-495 1139,-736 1868,-736 1868,-495 1139,-495"/>
<text text-anchor="middle" x="1503.5" y="-720.8" font-family="Times,serif" font-size="14.00">subgraph_quant_dense_1(TransferMatMulToConv2d)</text>
</g>
<g id="clust4" class="cluster">
<title>clustersubgraph3</title>
<polygon fill="none" stroke="black" points="329,-981.5 329,-1311.5 1417,-1311.5 1417,-981.5 329,-981.5"/>
<text text-anchor="middle" x="873" y="-1296.3" font-family="Times,serif" font-size="14.00">subgraph_quant_batch_normalization_1</text>
</g>
<g id="clust5" class="cluster">
<title>clustersubgraph4</title>
<polygon fill="none" stroke="black" points="1078,-1542.5 1078,-1649.5 1344,-1649.5 1344,-1542.5 1078,-1542.5"/>
<text text-anchor="middle" x="1211" y="-1634.3" font-family="Times,serif" font-size="14.00">subgraph_input_1_upload_0</text>
</g>
<g id="clust6" class="cluster">
<title>clustersubgraph5</title>
<polygon fill="none" stroke="black" points="47,-1204.5 47,-1311.5 321,-1311.5 321,-1204.5 47,-1204.5"/>
<text text-anchor="middle" x="184" y="-1296.3" font-family="Times,serif" font-size="14.00">subgraph_quant_max_pooling2d</text>
</g>
<g id="clust7" class="cluster">
<title>clustersubgraph6</title>
<polygon fill="none" stroke="black" points="16,-1319.5 16,-1649.5 1070,-1649.5 1070,-1319.5 16,-1319.5"/>
<text text-anchor="middle" x="543" y="-1634.3" font-family="Times,serif" font-size="14.00">subgraph_quant_batch_normalization</text>
</g>
<g id="clust8" class="cluster">
<title>clustersubgraph7</title>
<polygon fill="none" stroke="black" points="229,-866.5 229,-973.5 519,-973.5 519,-866.5 229,-866.5"/>
<text text-anchor="middle" x="374" y="-958.3" font-family="Times,serif" font-size="14.00">subgraph_quant_max_pooling2d_1</text>
</g>
<g id="clust9" class="cluster">
<title>clustersubgraph8</title>
<polygon fill="none" stroke="black" points="16,-744 16,-851 410,-851 410,-744 16,-744"/>
<text text-anchor="middle" x="213" y="-835.8" font-family="Times,serif" font-size="14.00">subgraph_quant_flatten_fix_reshaped</text>
</g>
<g id="clust10" class="cluster">
<title>clustersubgraph9</title>
<polygon fill="none" stroke="black" points="1066,-365 1066,-487 1647,-487 1647,-365 1066,-365"/>
<text text-anchor="middle" x="1356.5" y="-471.8" font-family="Times,serif" font-size="14.00">subgraph_quant_dense_1(TransferMatMulToConv2d)_inserted_fix_4_reshaped</text>
</g>
<g id="clust11" class="cluster">
<title>clustersubgraph10</title>
<polygon fill="none" stroke="black" points="1019,-235 1019,-357 1693,-357 1693,-235 1019,-235"/>
<text text-anchor="middle" x="1356" y="-341.8" font-family="Times,serif" font-size="14.00">subgraph_quant_dense_1(TransferMatMulToConv2d)_inserted_fix_4_reshaped_download_0</text>
</g>
<g id="clust12" class="cluster">
<title>clustersubgraph11</title>
<polygon fill="none" stroke="black" points="1115,-1688.5 1115,-1795.5 1307,-1795.5 1307,-1688.5 1115,-1688.5"/>
<text text-anchor="middle" x="1211" y="-1780.3" font-family="Times,serif" font-size="14.00">subgraph_input_1</text>
</g>
<g id="clust13" class="cluster">
<title>clustersubgraph12</title>
<polygon fill="none" stroke="black" points="1197,-8 1197,-219 1515,-219 1515,-8 1197,-8"/>
<text text-anchor="middle" x="1356" y="-203.8" font-family="Times,serif" font-size="14.00">subgraph_activation_3</text>
</g>
<!-- 1 -->
<g id="node1" class="node">
<title>1</title>
<path fill="none" stroke="blue" d="M1111.5,-827.5C1111.5,-827.5 734.5,-827.5 734.5,-827.5 728.5,-827.5 722.5,-821.5 722.5,-815.5 722.5,-815.5 722.5,-756.5 722.5,-756.5 722.5,-750.5 728.5,-744.5 734.5,-744.5 734.5,-744.5 1111.5,-744.5 1111.5,-744.5 1117.5,-744.5 1123.5,-750.5 1123.5,-756.5 1123.5,-756.5 1123.5,-815.5 1123.5,-815.5 1123.5,-821.5 1117.5,-827.5 1111.5,-827.5"/>
<text text-anchor="middle" x="923" y="-812.3" font-family="Times,serif" font-size="14.00">Name: quant_dense_const_const(reshaped)</text>
<text text-anchor="middle" x="923" y="-797.3" font-family="Times,serif" font-size="14.00">Type: const&#45;fix</text>
<text text-anchor="middle" x="923" y="-782.3" font-family="Times,serif" font-size="14.00">Tensor: quant_dense_const_const(reshaped)_inserted</text>
<text text-anchor="middle" x="923" y="-767.3" font-family="Times,serif" font-size="14.00">_fix_0</text>
<text text-anchor="middle" x="923" y="-752.3" font-family="Times,serif" font-size="14.00">Shape: {512, 4, 4, 196}</text>
</g>
<!-- 22 -->
<g id="node3" class="node">
<title>22</title>
<path fill="none" stroke="blue" d="M967.5,-705C967.5,-705 580.5,-705 580.5,-705 574.5,-705 568.5,-699 568.5,-693 568.5,-693 568.5,-634 568.5,-634 568.5,-628 574.5,-622 580.5,-622 580.5,-622 967.5,-622 967.5,-622 973.5,-622 979.5,-628 979.5,-634 979.5,-634 979.5,-693 979.5,-693 979.5,-699 973.5,-705 967.5,-705"/>
<text text-anchor="middle" x="774" y="-689.8" font-family="Times,serif" font-size="14.00">Name: quant_dense(TransferMatMulToConv2d)</text>
<text text-anchor="middle" x="774" y="-674.8" font-family="Times,serif" font-size="14.00">Type: conv2d&#45;fix</text>
<text text-anchor="middle" x="774" y="-659.8" font-family="Times,serif" font-size="14.00">Tensor: quant_activation_2(TransferMatMulToConv2d)</text>
<text text-anchor="middle" x="774" y="-644.8" font-family="Times,serif" font-size="14.00">_inserted_fix_2</text>
<text text-anchor="middle" x="774" y="-629.8" font-family="Times,serif" font-size="14.00">Shape: {1, 1, 1, 512}</text>
</g>
<!-- 1&#45;&gt;22 -->
<g id="edge1" class="edge">
<title>1&#45;&gt;22</title>
<path fill="none" stroke="black" d="M872.56,-744.2C859.5,-733.65 845.34,-722.19 831.93,-711.35"/>
<polygon fill="black" stroke="black" points="834.12,-708.62 824.14,-705.05 829.71,-714.06 834.12,-708.62"/>
</g>
<!-- 10 -->
<g id="node2" class="node">
<title>10</title>
<path fill="none" stroke="blue" d="M692,-820C692,-820 438,-820 438,-820 432,-820 426,-814 426,-808 426,-808 426,-764 426,-764 426,-758 432,-752 438,-752 438,-752 692,-752 692,-752 698,-752 704,-758 704,-764 704,-764 704,-808 704,-808 704,-814 698,-820 692,-820"/>
<text text-anchor="middle" x="565" y="-804.8" font-family="Times,serif" font-size="14.00">Name: quant_dense_bias</text>
<text text-anchor="middle" x="565" y="-789.8" font-family="Times,serif" font-size="14.00">Type: const&#45;fix</text>
<text text-anchor="middle" x="565" y="-774.8" font-family="Times,serif" font-size="14.00">Tensor: quant_dense_bias_fixneuron</text>
<text text-anchor="middle" x="565" y="-759.8" font-family="Times,serif" font-size="14.00">Shape: {512}</text>
</g>
<!-- 10&#45;&gt;22 -->
<g id="edge2" class="edge">
<title>10&#45;&gt;22</title>
<path fill="none" stroke="black" d="M622.39,-751.91C644.77,-739.01 670.81,-724 694.92,-710.09"/>
<polygon fill="black" stroke="black" points="696.79,-713.06 703.71,-705.03 693.29,-706.99 696.79,-713.06"/>
</g>
<!-- 23 -->
<g id="node6" class="node">
<title>23</title>
<path fill="none" stroke="blue" d="M1553.5,-586C1553.5,-586 1158.5,-586 1158.5,-586 1152.5,-586 1146.5,-580 1146.5,-574 1146.5,-574 1146.5,-515 1146.5,-515 1146.5,-509 1152.5,-503 1158.5,-503 1158.5,-503 1553.5,-503 1553.5,-503 1559.5,-503 1565.5,-509 1565.5,-515 1565.5,-515 1565.5,-574 1565.5,-574 1565.5,-580 1559.5,-586 1553.5,-586"/>
<text text-anchor="middle" x="1356" y="-570.8" font-family="Times,serif" font-size="14.00">Name: quant_dense_1(TransferMatMulToConv2d)</text>
<text text-anchor="middle" x="1356" y="-555.8" font-family="Times,serif" font-size="14.00">Type: conv2d&#45;fix</text>
<text text-anchor="middle" x="1356" y="-540.8" font-family="Times,serif" font-size="14.00">Tensor: quant_dense_1(TransferMatMulToConv2d)_inse</text>
<text text-anchor="middle" x="1356" y="-525.8" font-family="Times,serif" font-size="14.00">rted_fix_4</text>
<text text-anchor="middle" x="1356" y="-510.8" font-family="Times,serif" font-size="14.00">Shape: {1, 1, 1, 25}</text>
</g>
<!-- 22&#45;&gt;23 -->
<g id="edge22" class="edge">
<title>22&#45;&gt;23</title>
<path fill="none" stroke="black" d="M975.51,-621.99C1030.05,-611.03 1089.22,-599.13 1144.29,-588.06"/>
<polygon fill="black" stroke="black" points="1145.05,-591.48 1154.17,-586.07 1143.67,-584.61 1145.05,-591.48"/>
</g>
<!-- 0 -->
<g id="node4" class="node">
<title>0</title>
<path fill="none" stroke="blue" d="M1848.5,-705C1848.5,-705 1471.5,-705 1471.5,-705 1465.5,-705 1459.5,-699 1459.5,-693 1459.5,-693 1459.5,-634 1459.5,-634 1459.5,-628 1465.5,-622 1471.5,-622 1471.5,-622 1848.5,-622 1848.5,-622 1854.5,-622 1860.5,-628 1860.5,-634 1860.5,-634 1860.5,-693 1860.5,-693 1860.5,-699 1854.5,-705 1848.5,-705"/>
<text text-anchor="middle" x="1660" y="-689.8" font-family="Times,serif" font-size="14.00">Name: quant_dense_1_const_const(reshaped)</text>
<text text-anchor="middle" x="1660" y="-674.8" font-family="Times,serif" font-size="14.00">Type: const&#45;fix</text>
<text text-anchor="middle" x="1660" y="-659.8" font-family="Times,serif" font-size="14.00">Tensor: quant_dense_1_const_const(reshaped)_insert</text>
<text text-anchor="middle" x="1660" y="-644.8" font-family="Times,serif" font-size="14.00">ed_fix_3</text>
<text text-anchor="middle" x="1660" y="-629.8" font-family="Times,serif" font-size="14.00">Shape: {25, 1, 1, 512}</text>
</g>
<!-- 0&#45;&gt;23 -->
<g id="edge3" class="edge">
<title>0&#45;&gt;23</title>
<path fill="none" stroke="black" d="M1554.53,-621.91C1527.53,-611.52 1498.36,-600.29 1470.92,-589.73"/>
<polygon fill="black" stroke="black" points="1471.87,-586.35 1461.28,-586.02 1469.36,-592.88 1471.87,-586.35"/>
</g>
<!-- 11 -->
<g id="node5" class="node">
<title>11</title>
<path fill="none" stroke="blue" d="M1429,-697.5C1429,-697.5 1159,-697.5 1159,-697.5 1153,-697.5 1147,-691.5 1147,-685.5 1147,-685.5 1147,-641.5 1147,-641.5 1147,-635.5 1153,-629.5 1159,-629.5 1159,-629.5 1429,-629.5 1429,-629.5 1435,-629.5 1441,-635.5 1441,-641.5 1441,-641.5 1441,-685.5 1441,-685.5 1441,-691.5 1435,-697.5 1429,-697.5"/>
<text text-anchor="middle" x="1294" y="-682.3" font-family="Times,serif" font-size="14.00">Name: quant_dense_1_bias</text>
<text text-anchor="middle" x="1294" y="-667.3" font-family="Times,serif" font-size="14.00">Type: const&#45;fix</text>
<text text-anchor="middle" x="1294" y="-652.3" font-family="Times,serif" font-size="14.00">Tensor: quant_dense_1_bias_fixneuron</text>
<text text-anchor="middle" x="1294" y="-637.3" font-family="Times,serif" font-size="14.00">Shape: {25}</text>
</g>
<!-- 11&#45;&gt;23 -->
<g id="edge4" class="edge">
<title>11&#45;&gt;23</title>
<path fill="none" stroke="black" d="M1311.6,-629.29C1317.19,-618.73 1323.51,-606.82 1329.58,-595.35"/>
<polygon fill="black" stroke="black" points="1332.79,-596.77 1334.38,-586.29 1326.61,-593.49 1332.79,-596.77"/>
</g>
<!-- 21 -->
<g id="node23" class="node">
<title>21</title>
<path fill="none" stroke="blue" d="M1561,-456C1561,-456 1151,-456 1151,-456 1145,-456 1139,-450 1139,-444 1139,-444 1139,-385 1139,-385 1139,-379 1145,-373 1151,-373 1151,-373 1561,-373 1561,-373 1567,-373 1573,-379 1573,-385 1573,-385 1573,-444 1573,-444 1573,-450 1567,-456 1561,-456"/>
<text text-anchor="middle" x="1356" y="-440.8" font-family="Times,serif" font-size="14.00">Name: quant_dense_1(TransferMatMulToConv2d)_inserte</text>
<text text-anchor="middle" x="1356" y="-425.8" font-family="Times,serif" font-size="14.00">d_fix_4_reshaped</text>
<text text-anchor="middle" x="1356" y="-410.8" font-family="Times,serif" font-size="14.00">Type: reshape&#45;fix</text>
<text text-anchor="middle" x="1356" y="-395.8" font-family="Times,serif" font-size="14.00">Tensor: quant_dense_1_fix_download_0</text>
<text text-anchor="middle" x="1356" y="-380.8" font-family="Times,serif" font-size="14.00">Shape: {1, 25}</text>
</g>
<!-- 23&#45;&gt;21 -->
<g id="edge23" class="edge">
<title>23&#45;&gt;21</title>
<path fill="none" stroke="black" d="M1356,-502.65C1356,-491.22 1356,-478.65 1356,-466.7"/>
<polygon fill="black" stroke="black" points="1359.5,-466.4 1356,-456.4 1352.5,-466.4 1359.5,-466.4"/>
</g>
<!-- 6 -->
<g id="node7" class="node">
<title>6</title>
<path fill="none" stroke="blue" d="M1396.5,-1280.5C1396.5,-1280.5 1089.5,-1280.5 1089.5,-1280.5 1083.5,-1280.5 1077.5,-1274.5 1077.5,-1268.5 1077.5,-1268.5 1077.5,-1224.5 1077.5,-1224.5 1077.5,-1218.5 1083.5,-1212.5 1089.5,-1212.5 1089.5,-1212.5 1396.5,-1212.5 1396.5,-1212.5 1402.5,-1212.5 1408.5,-1218.5 1408.5,-1224.5 1408.5,-1224.5 1408.5,-1268.5 1408.5,-1268.5 1408.5,-1274.5 1402.5,-1280.5 1396.5,-1280.5"/>
<text text-anchor="middle" x="1243" y="-1265.3" font-family="Times,serif" font-size="14.00">Name: quant_conv2d_1_weights</text>
<text text-anchor="middle" x="1243" y="-1250.3" font-family="Times,serif" font-size="14.00">Type: const&#45;fix</text>
<text text-anchor="middle" x="1243" y="-1235.3" font-family="Times,serif" font-size="14.00">Tensor: quant_conv2d_1_weights_fixneuron</text>
<text text-anchor="middle" x="1243" y="-1220.3" font-family="Times,serif" font-size="14.00">Shape: {64, 3, 3, 28}</text>
</g>
<!-- 18 -->
<g id="node11" class="node">
<title>18</title>
<path fill="none" stroke="blue" d="M1397,-1169C1397,-1169 1185,-1169 1185,-1169 1179,-1169 1173,-1163 1173,-1157 1173,-1157 1173,-1113 1173,-1113 1173,-1107 1179,-1101 1185,-1101 1185,-1101 1397,-1101 1397,-1101 1403,-1101 1409,-1107 1409,-1113 1409,-1113 1409,-1157 1409,-1157 1409,-1163 1403,-1169 1397,-1169"/>
<text text-anchor="middle" x="1291" y="-1153.8" font-family="Times,serif" font-size="14.00">Name: quant_conv2d_1</text>
<text text-anchor="middle" x="1291" y="-1138.8" font-family="Times,serif" font-size="14.00">Type: conv2d&#45;fix</text>
<text text-anchor="middle" x="1291" y="-1123.8" font-family="Times,serif" font-size="14.00">Tensor: quant_activation_1_fix</text>
<text text-anchor="middle" x="1291" y="-1108.8" font-family="Times,serif" font-size="14.00">Shape: {1, 14, 14, 64}</text>
</g>
<!-- 6&#45;&gt;18 -->
<g id="edge5" class="edge">
<title>6&#45;&gt;18</title>
<path fill="none" stroke="black" d="M1257.53,-1212.35C1262.23,-1201.63 1267.51,-1189.59 1272.46,-1178.3"/>
<polygon fill="black" stroke="black" points="1275.71,-1179.6 1276.52,-1169.04 1269.3,-1176.79 1275.71,-1179.6"/>
</g>
<!-- 7 -->
<g id="node8" class="node">
<title>7</title>
<path fill="none" stroke="blue" d="M1047,-1280.5C1047,-1280.5 767,-1280.5 767,-1280.5 761,-1280.5 755,-1274.5 755,-1268.5 755,-1268.5 755,-1224.5 755,-1224.5 755,-1218.5 761,-1212.5 767,-1212.5 767,-1212.5 1047,-1212.5 1047,-1212.5 1053,-1212.5 1059,-1218.5 1059,-1224.5 1059,-1224.5 1059,-1268.5 1059,-1268.5 1059,-1274.5 1053,-1280.5 1047,-1280.5"/>
<text text-anchor="middle" x="907" y="-1265.3" font-family="Times,serif" font-size="14.00">Name: quant_conv2d_1_bias</text>
<text text-anchor="middle" x="907" y="-1250.3" font-family="Times,serif" font-size="14.00">Type: const&#45;fix</text>
<text text-anchor="middle" x="907" y="-1235.3" font-family="Times,serif" font-size="14.00">Tensor: quant_conv2d_1_bias_fixneuron</text>
<text text-anchor="middle" x="907" y="-1220.3" font-family="Times,serif" font-size="14.00">Shape: {64}</text>
</g>
<!-- 7&#45;&gt;18 -->
<g id="edge6" class="edge">
<title>7&#45;&gt;18</title>
<path fill="none" stroke="black" d="M1034.78,-1212.45C1076.13,-1201.42 1122.11,-1188.8 1164,-1176.5 1168.94,-1175.05 1173.98,-1173.55 1179.06,-1172.01"/>
<polygon fill="black" stroke="black" points="1180.34,-1175.28 1188.88,-1169.02 1178.3,-1168.58 1180.34,-1175.28"/>
</g>
<!-- 8 -->
<g id="node9" class="node">
<title>8</title>
<path fill="none" stroke="blue" d="M1142.5,-1176.5C1142.5,-1176.5 765.5,-1176.5 765.5,-1176.5 759.5,-1176.5 753.5,-1170.5 753.5,-1164.5 753.5,-1164.5 753.5,-1105.5 753.5,-1105.5 753.5,-1099.5 759.5,-1093.5 765.5,-1093.5 765.5,-1093.5 1142.5,-1093.5 1142.5,-1093.5 1148.5,-1093.5 1154.5,-1099.5 1154.5,-1105.5 1154.5,-1105.5 1154.5,-1164.5 1154.5,-1164.5 1154.5,-1170.5 1148.5,-1176.5 1142.5,-1176.5"/>
<text text-anchor="middle" x="954" y="-1161.3" font-family="Times,serif" font-size="14.00">Name: quant_batch_normalization_1_weights</text>
<text text-anchor="middle" x="954" y="-1146.3" font-family="Times,serif" font-size="14.00">Type: const&#45;fix</text>
<text text-anchor="middle" x="954" y="-1131.3" font-family="Times,serif" font-size="14.00">Tensor: quant_batch_normalization_1_weights_fixneu</text>
<text text-anchor="middle" x="954" y="-1116.3" font-family="Times,serif" font-size="14.00">ron</text>
<text text-anchor="middle" x="954" y="-1101.3" font-family="Times,serif" font-size="14.00">Shape: {1, 1, 1, 64}</text>
</g>
<!-- 19 -->
<g id="node12" class="node">
<title>19</title>
<path fill="none" stroke="blue" d="M888.5,-1057.5C888.5,-1057.5 601.5,-1057.5 601.5,-1057.5 595.5,-1057.5 589.5,-1051.5 589.5,-1045.5 589.5,-1045.5 589.5,-1001.5 589.5,-1001.5 589.5,-995.5 595.5,-989.5 601.5,-989.5 601.5,-989.5 888.5,-989.5 888.5,-989.5 894.5,-989.5 900.5,-995.5 900.5,-1001.5 900.5,-1001.5 900.5,-1045.5 900.5,-1045.5 900.5,-1051.5 894.5,-1057.5 888.5,-1057.5"/>
<text text-anchor="middle" x="745" y="-1042.3" font-family="Times,serif" font-size="14.00">Name: quant_batch_normalization_1</text>
<text text-anchor="middle" x="745" y="-1027.3" font-family="Times,serif" font-size="14.00">Type: depthwise&#45;conv2d&#45;fix</text>
<text text-anchor="middle" x="745" y="-1012.3" font-family="Times,serif" font-size="14.00">Tensor: quant_batch_normalization_1_fix</text>
<text text-anchor="middle" x="745" y="-997.3" font-family="Times,serif" font-size="14.00">Shape: {1, 14, 14, 64}</text>
</g>
<!-- 8&#45;&gt;19 -->
<g id="edge7" class="edge">
<title>8&#45;&gt;19</title>
<path fill="none" stroke="black" d="M876.47,-1093.38C857.02,-1083.19 836.22,-1072.29 817.05,-1062.25"/>
<polygon fill="black" stroke="black" points="818.55,-1059.08 808.07,-1057.54 815.3,-1065.28 818.55,-1059.08"/>
</g>
<!-- 9 -->
<g id="node10" class="node">
<title>9</title>
<path fill="none" stroke="blue" d="M723,-1169C723,-1169 349,-1169 349,-1169 343,-1169 337,-1163 337,-1157 337,-1157 337,-1113 337,-1113 337,-1107 343,-1101 349,-1101 349,-1101 723,-1101 723,-1101 729,-1101 735,-1107 735,-1113 735,-1113 735,-1157 735,-1157 735,-1163 729,-1169 723,-1169"/>
<text text-anchor="middle" x="536" y="-1153.8" font-family="Times,serif" font-size="14.00">Name: quant_batch_normalization_1_bias</text>
<text text-anchor="middle" x="536" y="-1138.8" font-family="Times,serif" font-size="14.00">Type: const&#45;fix</text>
<text text-anchor="middle" x="536" y="-1123.8" font-family="Times,serif" font-size="14.00">Tensor: quant_batch_normalization_1_bias_fixneuron</text>
<text text-anchor="middle" x="536" y="-1108.8" font-family="Times,serif" font-size="14.00">Shape: {64}</text>
</g>
<!-- 9&#45;&gt;19 -->
<g id="edge8" class="edge">
<title>9&#45;&gt;19</title>
<path fill="none" stroke="black" d="M598.99,-1101C622.22,-1088.83 648.73,-1074.94 672.72,-1062.37"/>
<polygon fill="black" stroke="black" points="674.54,-1065.36 681.78,-1057.62 671.3,-1059.16 674.54,-1065.36"/>
</g>
<!-- 18&#45;&gt;19 -->
<g id="edge9" class="edge">
<title>18&#45;&gt;19</title>
<path fill="none" stroke="black" d="M1192.25,-1100.98C1182.75,-1098.26 1173.23,-1095.72 1164,-1093.5 1081.51,-1073.67 988.51,-1057.72 911.12,-1046.18"/>
<polygon fill="black" stroke="black" points="911.2,-1042.65 900.79,-1044.65 910.17,-1049.57 911.2,-1042.65"/>
</g>
<!-- 17 -->
<g id="node21" class="node">
<title>17</title>
<path fill="none" stroke="blue" d="M498.5,-942.5C498.5,-942.5 249.5,-942.5 249.5,-942.5 243.5,-942.5 237.5,-936.5 237.5,-930.5 237.5,-930.5 237.5,-886.5 237.5,-886.5 237.5,-880.5 243.5,-874.5 249.5,-874.5 249.5,-874.5 498.5,-874.5 498.5,-874.5 504.5,-874.5 510.5,-880.5 510.5,-886.5 510.5,-886.5 510.5,-930.5 510.5,-930.5 510.5,-936.5 504.5,-942.5 498.5,-942.5"/>
<text text-anchor="middle" x="374" y="-927.3" font-family="Times,serif" font-size="14.00">Name: quant_max_pooling2d_1</text>
<text text-anchor="middle" x="374" y="-912.3" font-family="Times,serif" font-size="14.00">Type: pool&#45;fix</text>
<text text-anchor="middle" x="374" y="-897.3" font-family="Times,serif" font-size="14.00">Tensor: quant_max_pooling2d_1_fix</text>
<text text-anchor="middle" x="374" y="-882.3" font-family="Times,serif" font-size="14.00">Shape: {1, 7, 7, 64}</text>
</g>
<!-- 19&#45;&gt;17 -->
<g id="edge19" class="edge">
<title>19&#45;&gt;17</title>
<path fill="none" stroke="black" d="M636.19,-989.36C590.98,-975.59 538.39,-959.57 492.23,-945.51"/>
<polygon fill="black" stroke="black" points="493.07,-942.11 482.48,-942.54 491.03,-948.8 493.07,-942.11"/>
</g>
<!-- 13 -->
<g id="node13" class="node">
<title>13</title>
<path fill="none" stroke="blue" d="M1323.5,-1618.5C1323.5,-1618.5 1098.5,-1618.5 1098.5,-1618.5 1092.5,-1618.5 1086.5,-1612.5 1086.5,-1606.5 1086.5,-1606.5 1086.5,-1562.5 1086.5,-1562.5 1086.5,-1556.5 1092.5,-1550.5 1098.5,-1550.5 1098.5,-1550.5 1323.5,-1550.5 1323.5,-1550.5 1329.5,-1550.5 1335.5,-1556.5 1335.5,-1562.5 1335.5,-1562.5 1335.5,-1606.5 1335.5,-1606.5 1335.5,-1612.5 1329.5,-1618.5 1323.5,-1618.5"/>
<text text-anchor="middle" x="1211" y="-1603.3" font-family="Times,serif" font-size="14.00">Name: input_1_upload_0</text>
<text text-anchor="middle" x="1211" y="-1588.3" font-family="Times,serif" font-size="14.00">Type: upload</text>
<text text-anchor="middle" x="1211" y="-1573.3" font-family="Times,serif" font-size="14.00">Tensor: quant_input_1_upload_0</text>
<text text-anchor="middle" x="1211" y="-1558.3" font-family="Times,serif" font-size="14.00">Shape: {1, 28, 28, 1}</text>
</g>
<!-- 15 -->
<g id="node19" class="node">
<title>15</title>
<path fill="none" stroke="blue" d="M1050,-1507C1050,-1507 854,-1507 854,-1507 848,-1507 842,-1501 842,-1495 842,-1495 842,-1451 842,-1451 842,-1445 848,-1439 854,-1439 854,-1439 1050,-1439 1050,-1439 1056,-1439 1062,-1445 1062,-1451 1062,-1451 1062,-1495 1062,-1495 1062,-1501 1056,-1507 1050,-1507"/>
<text text-anchor="middle" x="952" y="-1491.8" font-family="Times,serif" font-size="14.00">Name: quant_conv2d</text>
<text text-anchor="middle" x="952" y="-1476.8" font-family="Times,serif" font-size="14.00">Type: conv2d&#45;fix</text>
<text text-anchor="middle" x="952" y="-1461.8" font-family="Times,serif" font-size="14.00">Tensor: quant_activation_fix</text>
<text text-anchor="middle" x="952" y="-1446.8" font-family="Times,serif" font-size="14.00">Shape: {1, 28, 28, 28}</text>
</g>
<!-- 13&#45;&gt;15 -->
<g id="edge15" class="edge">
<title>13&#45;&gt;15</title>
<path fill="none" stroke="black" d="M1132.94,-1550.5C1103.51,-1538.06 1069.86,-1523.83 1039.61,-1511.04"/>
<polygon fill="black" stroke="black" points="1040.92,-1507.79 1030.35,-1507.12 1038.19,-1514.24 1040.92,-1507.79"/>
</g>
<!-- 14 -->
<g id="node14" class="node">
<title>14</title>
<path fill="none" stroke="blue" d="M300.5,-1280.5C300.5,-1280.5 67.5,-1280.5 67.5,-1280.5 61.5,-1280.5 55.5,-1274.5 55.5,-1268.5 55.5,-1268.5 55.5,-1224.5 55.5,-1224.5 55.5,-1218.5 61.5,-1212.5 67.5,-1212.5 67.5,-1212.5 300.5,-1212.5 300.5,-1212.5 306.5,-1212.5 312.5,-1218.5 312.5,-1224.5 312.5,-1224.5 312.5,-1268.5 312.5,-1268.5 312.5,-1274.5 306.5,-1280.5 300.5,-1280.5"/>
<text text-anchor="middle" x="184" y="-1265.3" font-family="Times,serif" font-size="14.00">Name: quant_max_pooling2d</text>
<text text-anchor="middle" x="184" y="-1250.3" font-family="Times,serif" font-size="14.00">Type: pool&#45;fix</text>
<text text-anchor="middle" x="184" y="-1235.3" font-family="Times,serif" font-size="14.00">Tensor: quant_max_pooling2d_fix</text>
<text text-anchor="middle" x="184" y="-1220.3" font-family="Times,serif" font-size="14.00">Shape: {1, 14, 14, 28}</text>
</g>
<!-- 14&#45;&gt;18 -->
<g id="edge16" class="edge">
<title>14&#45;&gt;18</title>
<path fill="none" stroke="black" d="M286.51,-1212.48C299.36,-1209.3 312.41,-1206.51 325,-1204.5 693.44,-1145.73 796.35,-1240 1164,-1176.5 1171.78,-1175.16 1179.75,-1173.45 1187.71,-1171.5"/>
<polygon fill="black" stroke="black" points="1188.58,-1174.89 1197.4,-1169.02 1186.84,-1168.11 1188.58,-1174.89"/>
</g>
<!-- 2 -->
<g id="node15" class="node">
<title>2</title>
<path fill="none" stroke="blue" d="M1050,-1618.5C1050,-1618.5 760,-1618.5 760,-1618.5 754,-1618.5 748,-1612.5 748,-1606.5 748,-1606.5 748,-1562.5 748,-1562.5 748,-1556.5 754,-1550.5 760,-1550.5 760,-1550.5 1050,-1550.5 1050,-1550.5 1056,-1550.5 1062,-1556.5 1062,-1562.5 1062,-1562.5 1062,-1606.5 1062,-1606.5 1062,-1612.5 1056,-1618.5 1050,-1618.5"/>
<text text-anchor="middle" x="905" y="-1603.3" font-family="Times,serif" font-size="14.00">Name: quant_conv2d_weights</text>
<text text-anchor="middle" x="905" y="-1588.3" font-family="Times,serif" font-size="14.00">Type: const&#45;fix</text>
<text text-anchor="middle" x="905" y="-1573.3" font-family="Times,serif" font-size="14.00">Tensor: quant_conv2d_weights_fixneuron</text>
<text text-anchor="middle" x="905" y="-1558.3" font-family="Times,serif" font-size="14.00">Shape: {28, 3, 3, 1}</text>
</g>
<!-- 2&#45;&gt;15 -->
<g id="edge10" class="edge">
<title>2&#45;&gt;15</title>
<path fill="none" stroke="black" d="M919.23,-1550.35C923.83,-1539.63 929,-1527.59 933.84,-1516.3"/>
<polygon fill="black" stroke="black" points="937.09,-1517.61 937.82,-1507.04 930.66,-1514.85 937.09,-1517.61"/>
</g>
<!-- 3 -->
<g id="node16" class="node">
<title>3</title>
<path fill="none" stroke="blue" d="M717.5,-1618.5C717.5,-1618.5 454.5,-1618.5 454.5,-1618.5 448.5,-1618.5 442.5,-1612.5 442.5,-1606.5 442.5,-1606.5 442.5,-1562.5 442.5,-1562.5 442.5,-1556.5 448.5,-1550.5 454.5,-1550.5 454.5,-1550.5 717.5,-1550.5 717.5,-1550.5 723.5,-1550.5 729.5,-1556.5 729.5,-1562.5 729.5,-1562.5 729.5,-1606.5 729.5,-1606.5 729.5,-1612.5 723.5,-1618.5 717.5,-1618.5"/>
<text text-anchor="middle" x="586" y="-1603.3" font-family="Times,serif" font-size="14.00">Name: quant_conv2d_bias</text>
<text text-anchor="middle" x="586" y="-1588.3" font-family="Times,serif" font-size="14.00">Type: const&#45;fix</text>
<text text-anchor="middle" x="586" y="-1573.3" font-family="Times,serif" font-size="14.00">Tensor: quant_conv2d_bias_fixneuron</text>
<text text-anchor="middle" x="586" y="-1558.3" font-family="Times,serif" font-size="14.00">Shape: {28}</text>
</g>
<!-- 3&#45;&gt;15 -->
<g id="edge11" class="edge">
<title>3&#45;&gt;15</title>
<path fill="none" stroke="black" d="M709.52,-1550.45C749.1,-1539.47 793.02,-1526.88 833,-1514.5 837.52,-1513.1 842.12,-1511.65 846.77,-1510.16"/>
<polygon fill="black" stroke="black" points="847.91,-1513.47 856.35,-1507.07 845.76,-1506.81 847.91,-1513.47"/>
</g>
<!-- 4 -->
<g id="node17" class="node">
<title>4</title>
<path fill="none" stroke="blue" d="M812,-1514.5C812,-1514.5 436,-1514.5 436,-1514.5 430,-1514.5 424,-1508.5 424,-1502.5 424,-1502.5 424,-1443.5 424,-1443.5 424,-1437.5 430,-1431.5 436,-1431.5 436,-1431.5 812,-1431.5 812,-1431.5 818,-1431.5 824,-1437.5 824,-1443.5 824,-1443.5 824,-1502.5 824,-1502.5 824,-1508.5 818,-1514.5 812,-1514.5"/>
<text text-anchor="middle" x="624" y="-1499.3" font-family="Times,serif" font-size="14.00">Name: quant_batch_normalization_weights</text>
<text text-anchor="middle" x="624" y="-1484.3" font-family="Times,serif" font-size="14.00">Type: const&#45;fix</text>
<text text-anchor="middle" x="624" y="-1469.3" font-family="Times,serif" font-size="14.00">Tensor: quant_batch_normalization_weights_fixneuro</text>
<text text-anchor="middle" x="624" y="-1454.3" font-family="Times,serif" font-size="14.00">n</text>
<text text-anchor="middle" x="624" y="-1439.3" font-family="Times,serif" font-size="14.00">Shape: {1, 1, 1, 28}</text>
</g>
<!-- 16 -->
<g id="node20" class="node">
<title>16</title>
<path fill="none" stroke="blue" d="M554.5,-1395.5C554.5,-1395.5 283.5,-1395.5 283.5,-1395.5 277.5,-1395.5 271.5,-1389.5 271.5,-1383.5 271.5,-1383.5 271.5,-1339.5 271.5,-1339.5 271.5,-1333.5 277.5,-1327.5 283.5,-1327.5 283.5,-1327.5 554.5,-1327.5 554.5,-1327.5 560.5,-1327.5 566.5,-1333.5 566.5,-1339.5 566.5,-1339.5 566.5,-1383.5 566.5,-1383.5 566.5,-1389.5 560.5,-1395.5 554.5,-1395.5"/>
<text text-anchor="middle" x="419" y="-1380.3" font-family="Times,serif" font-size="14.00">Name: quant_batch_normalization</text>
<text text-anchor="middle" x="419" y="-1365.3" font-family="Times,serif" font-size="14.00">Type: depthwise&#45;conv2d&#45;fix</text>
<text text-anchor="middle" x="419" y="-1350.3" font-family="Times,serif" font-size="14.00">Tensor: quant_batch_normalization_fix</text>
<text text-anchor="middle" x="419" y="-1335.3" font-family="Times,serif" font-size="14.00">Shape: {1, 28, 28, 28}</text>
</g>
<!-- 4&#45;&gt;16 -->
<g id="edge12" class="edge">
<title>4&#45;&gt;16</title>
<path fill="none" stroke="black" d="M547.96,-1431.38C528.96,-1421.23 508.66,-1410.39 489.92,-1400.38"/>
<polygon fill="black" stroke="black" points="491.33,-1397.17 480.86,-1395.54 488.03,-1403.34 491.33,-1397.17"/>
</g>
<!-- 5 -->
<g id="node18" class="node">
<title>5</title>
<path fill="none" stroke="blue" d="M394,-1507C394,-1507 36,-1507 36,-1507 30,-1507 24,-1501 24,-1495 24,-1495 24,-1451 24,-1451 24,-1445 30,-1439 36,-1439 36,-1439 394,-1439 394,-1439 400,-1439 406,-1445 406,-1451 406,-1451 406,-1495 406,-1495 406,-1501 400,-1507 394,-1507"/>
<text text-anchor="middle" x="215" y="-1491.8" font-family="Times,serif" font-size="14.00">Name: quant_batch_normalization_bias</text>
<text text-anchor="middle" x="215" y="-1476.8" font-family="Times,serif" font-size="14.00">Type: const&#45;fix</text>
<text text-anchor="middle" x="215" y="-1461.8" font-family="Times,serif" font-size="14.00">Tensor: quant_batch_normalization_bias_fixneuron</text>
<text text-anchor="middle" x="215" y="-1446.8" font-family="Times,serif" font-size="14.00">Shape: {28}</text>
</g>
<!-- 5&#45;&gt;16 -->
<g id="edge13" class="edge">
<title>5&#45;&gt;16</title>
<path fill="none" stroke="black" d="M276.48,-1439C299.16,-1426.83 325.03,-1412.94 348.45,-1400.37"/>
<polygon fill="black" stroke="black" points="350.13,-1403.44 357.29,-1395.62 346.82,-1397.27 350.13,-1403.44"/>
</g>
<!-- 15&#45;&gt;16 -->
<g id="edge14" class="edge">
<title>15&#45;&gt;16</title>
<path fill="none" stroke="black" d="M859.54,-1438.91C850.63,-1436.21 841.68,-1433.68 833,-1431.5 749.48,-1410.48 654.83,-1394.16 577.14,-1382.68"/>
<polygon fill="black" stroke="black" points="577.18,-1379.15 566.78,-1381.16 576.17,-1386.08 577.18,-1379.15"/>
</g>
<!-- 16&#45;&gt;14 -->
<g id="edge17" class="edge">
<title>16&#45;&gt;14</title>
<path fill="none" stroke="black" d="M350.08,-1327.36C322.46,-1314.08 290.5,-1298.71 262.03,-1285.02"/>
<polygon fill="black" stroke="black" points="263.45,-1281.82 252.92,-1280.64 260.41,-1288.13 263.45,-1281.82"/>
</g>
<!-- 20 -->
<g id="node22" class="node">
<title>20</title>
<path fill="none" stroke="blue" d="M390,-820C390,-820 36,-820 36,-820 30,-820 24,-814 24,-808 24,-808 24,-764 24,-764 24,-758 30,-752 36,-752 36,-752 390,-752 390,-752 396,-752 402,-758 402,-764 402,-764 402,-808 402,-808 402,-814 396,-820 390,-820"/>
<text text-anchor="middle" x="213" y="-804.8" font-family="Times,serif" font-size="14.00">Name: quant_flatten_fix_reshaped</text>
<text text-anchor="middle" x="213" y="-789.8" font-family="Times,serif" font-size="14.00">Type: reshape&#45;fix</text>
<text text-anchor="middle" x="213" y="-774.8" font-family="Times,serif" font-size="14.00">Tensor: quant_flatten_fix_reshaped_inserted_fix_1</text>
<text text-anchor="middle" x="213" y="-759.8" font-family="Times,serif" font-size="14.00">Shape: {1, 4, 4, 196}</text>
</g>
<!-- 17&#45;&gt;20 -->
<g id="edge18" class="edge">
<title>17&#45;&gt;20</title>
<path fill="none" stroke="black" d="M329.58,-874.25C309.69,-859.37 286.11,-841.72 265.37,-826.19"/>
<polygon fill="black" stroke="black" points="267.38,-823.33 257.28,-820.14 263.18,-828.93 267.38,-823.33"/>
</g>
<!-- 20&#45;&gt;22 -->
<g id="edge20" class="edge">
<title>20&#45;&gt;22</title>
<path fill="none" stroke="black" d="M366.67,-751.99C431.06,-738.16 506.74,-721.91 575.28,-707.18"/>
<polygon fill="black" stroke="black" points="576.3,-710.55 585.34,-705.02 574.83,-703.7 576.3,-710.55"/>
</g>
<!-- 24 -->
<g id="node24" class="node">
<title>24</title>
<path fill="none" stroke="blue" d="M1561,-326C1561,-326 1151,-326 1151,-326 1145,-326 1139,-320 1139,-314 1139,-314 1139,-255 1139,-255 1139,-249 1145,-243 1151,-243 1151,-243 1561,-243 1561,-243 1567,-243 1573,-249 1573,-255 1573,-255 1573,-314 1573,-314 1573,-320 1567,-326 1561,-326"/>
<text text-anchor="middle" x="1356" y="-310.8" font-family="Times,serif" font-size="14.00">Name: quant_dense_1(TransferMatMulToConv2d)_inserte</text>
<text text-anchor="middle" x="1356" y="-295.8" font-family="Times,serif" font-size="14.00">d_fix_4_reshaped_download_0</text>
<text text-anchor="middle" x="1356" y="-280.8" font-family="Times,serif" font-size="14.00">Type: download</text>
<text text-anchor="middle" x="1356" y="-265.8" font-family="Times,serif" font-size="14.00">Tensor: quant_dense_1_fix</text>
<text text-anchor="middle" x="1356" y="-250.8" font-family="Times,serif" font-size="14.00">Shape: {1, 25}</text>
</g>
<!-- 21&#45;&gt;24 -->
<g id="edge21" class="edge">
<title>21&#45;&gt;24</title>
<path fill="none" stroke="black" d="M1356,-372.65C1356,-361.22 1356,-348.65 1356,-336.7"/>
<polygon fill="black" stroke="black" points="1359.5,-336.4 1356,-326.4 1352.5,-336.4 1359.5,-336.4"/>
</g>
<!-- 25 -->
<g id="node26" class="node">
<title>25</title>
<path fill="none" stroke="red" d="M1495,-188C1495,-188 1217,-188 1217,-188 1211,-188 1205,-182 1205,-176 1205,-176 1205,-132 1205,-132 1205,-126 1211,-120 1217,-120 1217,-120 1495,-120 1495,-120 1501,-120 1507,-126 1507,-132 1507,-132 1507,-176 1507,-176 1507,-182 1501,-188 1495,-188"/>
<text text-anchor="middle" x="1356" y="-172.8" font-family="Times,serif" font-size="14.00">Name: quant_dense_1_fix_activation_3</text>
<text text-anchor="middle" x="1356" y="-157.8" font-family="Times,serif" font-size="14.00">Type: fix2float</text>
<text text-anchor="middle" x="1356" y="-142.8" font-family="Times,serif" font-size="14.00">Tensor: quant_dense_1_fix_activation_3</text>
<text text-anchor="middle" x="1356" y="-127.8" font-family="Times,serif" font-size="14.00">Shape: {1, 25}</text>
</g>
<!-- 24&#45;&gt;25 -->
<g id="edge26" class="edge">
<title>24&#45;&gt;25</title>
<path fill="none" stroke="black" d="M1356,-242.84C1356,-228.64 1356,-212.66 1356,-198.25"/>
<polygon fill="black" stroke="black" points="1359.5,-198.09 1356,-188.09 1352.5,-198.09 1359.5,-198.09"/>
</g>
<!-- 12 -->
<g id="node25" class="node">
<title>12</title>
<path fill="none" stroke="green" d="M1287.5,-1764.5C1287.5,-1764.5 1134.5,-1764.5 1134.5,-1764.5 1128.5,-1764.5 1122.5,-1758.5 1122.5,-1752.5 1122.5,-1752.5 1122.5,-1708.5 1122.5,-1708.5 1122.5,-1702.5 1128.5,-1696.5 1134.5,-1696.5 1134.5,-1696.5 1287.5,-1696.5 1287.5,-1696.5 1293.5,-1696.5 1299.5,-1702.5 1299.5,-1708.5 1299.5,-1708.5 1299.5,-1752.5 1299.5,-1752.5 1299.5,-1758.5 1293.5,-1764.5 1287.5,-1764.5"/>
<text text-anchor="middle" x="1211" y="-1749.3" font-family="Times,serif" font-size="14.00">Name: input_1</text>
<text text-anchor="middle" x="1211" y="-1734.3" font-family="Times,serif" font-size="14.00">Type: data&#45;fix</text>
<text text-anchor="middle" x="1211" y="-1719.3" font-family="Times,serif" font-size="14.00">Tensor: quant_input_1</text>
<text text-anchor="middle" x="1211" y="-1704.3" font-family="Times,serif" font-size="14.00">Shape: {1, 28, 28, 1}</text>
</g>
<!-- 12&#45;&gt;13 -->
<g id="edge25" class="edge">
<title>12&#45;&gt;13</title>
<path fill="none" stroke="black" d="M1211,-1696.46C1211,-1676.48 1211,-1650.77 1211,-1629.13"/>
<polygon fill="black" stroke="black" points="1214.5,-1628.88 1211,-1618.88 1207.5,-1628.88 1214.5,-1628.88"/>
</g>
<!-- 26 -->
<g id="node27" class="node">
<title>26</title>
<path fill="none" stroke="red" d="M1425,-84C1425,-84 1287,-84 1287,-84 1281,-84 1275,-78 1275,-72 1275,-72 1275,-28 1275,-28 1275,-22 1281,-16 1287,-16 1287,-16 1425,-16 1425,-16 1431,-16 1437,-22 1437,-28 1437,-28 1437,-72 1437,-72 1437,-78 1431,-84 1425,-84"/>
<text text-anchor="middle" x="1356" y="-68.8" font-family="Times,serif" font-size="14.00">Name: activation_3</text>
<text text-anchor="middle" x="1356" y="-53.8" font-family="Times,serif" font-size="14.00">Type: softmax</text>
<text text-anchor="middle" x="1356" y="-38.8" font-family="Times,serif" font-size="14.00">Tensor: activation_3</text>
<text text-anchor="middle" x="1356" y="-23.8" font-family="Times,serif" font-size="14.00">Shape: {1, 25}</text>
</g>
<!-- 25&#45;&gt;26 -->
<g id="edge24" class="edge">
<title>25&#45;&gt;26</title>
<path fill="none" stroke="black" d="M1356,-119.88C1356,-111.78 1356,-102.98 1356,-94.47"/>
<polygon fill="black" stroke="black" points="1359.5,-94.3 1356,-84.3 1352.5,-94.3 1359.5,-94.3"/>
</g>
</g>
</svg>
